<mxfile host="app.diagrams.net" modified="2022-06-22T11:16:20.973Z" agent="5.0 (Macintosh; Intel Mac OS X 10_15_7) AppleWebKit/537.36 (KHTML, like Gecko) Chrome/102.0.0.0 Safari/537.36" etag="Xz5W-qDz2q8uLqlI_qtT" version="17.4.6" type="github">
  <diagram id="q77IYZFQ76E2E1LDjiC6" name="第 1 页">
    <mxGraphModel dx="3370" dy="1683" grid="1" gridSize="10" guides="1" tooltips="1" connect="1" arrows="1" fold="1" page="1" pageScale="1" pageWidth="827" pageHeight="1169" math="0" shadow="0">
      <root>
        <mxCell id="0" />
        <mxCell id="1" parent="0" />
        <mxCell id="O0VwoSt6DRj06Ita-L_8-1" value="CPM" style="swimlane;" vertex="1" parent="1">
          <mxGeometry x="130" y="310" width="340" height="1420" as="geometry" />
        </mxCell>
        <mxCell id="O0VwoSt6DRj06Ita-L_8-2" value="ADX请求" style="rounded=0;whiteSpace=wrap;html=1;" vertex="1" parent="O0VwoSt6DRj06Ita-L_8-1">
          <mxGeometry x="90" y="50" width="120" height="40" as="geometry" />
        </mxCell>
        <mxCell id="O0VwoSt6DRj06Ita-L_8-21" value="" style="edgeStyle=orthogonalEdgeStyle;rounded=0;orthogonalLoop=1;jettySize=auto;html=1;" edge="1" parent="O0VwoSt6DRj06Ita-L_8-1" source="O0VwoSt6DRj06Ita-L_8-3" target="O0VwoSt6DRj06Ita-L_8-20">
          <mxGeometry relative="1" as="geometry" />
        </mxCell>
        <mxCell id="O0VwoSt6DRj06Ita-L_8-3" value="prepare" style="whiteSpace=wrap;html=1;rounded=0;" vertex="1" parent="O0VwoSt6DRj06Ita-L_8-1">
          <mxGeometry x="90" y="130" width="120" height="40" as="geometry" />
        </mxCell>
        <mxCell id="O0VwoSt6DRj06Ita-L_8-4" value="" style="edgeStyle=orthogonalEdgeStyle;rounded=0;orthogonalLoop=1;jettySize=auto;html=1;" edge="1" parent="O0VwoSt6DRj06Ita-L_8-1" source="O0VwoSt6DRj06Ita-L_8-2" target="O0VwoSt6DRj06Ita-L_8-3">
          <mxGeometry relative="1" as="geometry" />
        </mxCell>
        <mxCell id="O0VwoSt6DRj06Ita-L_8-53" value="" style="edgeStyle=orthogonalEdgeStyle;rounded=0;orthogonalLoop=1;jettySize=auto;html=1;" edge="1" parent="O0VwoSt6DRj06Ita-L_8-1" source="O0VwoSt6DRj06Ita-L_8-20" target="O0VwoSt6DRj06Ita-L_8-52">
          <mxGeometry relative="1" as="geometry" />
        </mxCell>
        <mxCell id="O0VwoSt6DRj06Ita-L_8-20" value="订单索引召回" style="whiteSpace=wrap;html=1;rounded=0;" vertex="1" parent="O0VwoSt6DRj06Ita-L_8-1">
          <mxGeometry x="90" y="210" width="120" height="50" as="geometry" />
        </mxCell>
        <mxCell id="O0VwoSt6DRj06Ita-L_8-55" value="" style="edgeStyle=orthogonalEdgeStyle;rounded=0;orthogonalLoop=1;jettySize=auto;html=1;" edge="1" parent="O0VwoSt6DRj06Ita-L_8-1" source="O0VwoSt6DRj06Ita-L_8-52" target="O0VwoSt6DRj06Ita-L_8-54">
          <mxGeometry relative="1" as="geometry" />
        </mxCell>
        <mxCell id="O0VwoSt6DRj06Ita-L_8-52" value="预算控制，消耗控制" style="whiteSpace=wrap;html=1;rounded=0;" vertex="1" parent="O0VwoSt6DRj06Ita-L_8-1">
          <mxGeometry x="90" y="310" width="120" height="45" as="geometry" />
        </mxCell>
        <mxCell id="O0VwoSt6DRj06Ita-L_8-54" value="物料召回（根据订单查询物料）" style="whiteSpace=wrap;html=1;rounded=0;" vertex="1" parent="O0VwoSt6DRj06Ita-L_8-1">
          <mxGeometry x="90" y="400" width="120" height="37.5" as="geometry" />
        </mxCell>
        <mxCell id="O0VwoSt6DRj06Ita-L_8-91" style="edgeStyle=orthogonalEdgeStyle;rounded=0;orthogonalLoop=1;jettySize=auto;html=1;entryX=0.5;entryY=0;entryDx=0;entryDy=0;fontSize=12;" edge="1" parent="O0VwoSt6DRj06Ita-L_8-1" source="O0VwoSt6DRj06Ita-L_8-63" target="O0VwoSt6DRj06Ita-L_8-90">
          <mxGeometry relative="1" as="geometry" />
        </mxCell>
        <mxCell id="O0VwoSt6DRj06Ita-L_8-63" value="" style="swimlane;startSize=0;html=0;" vertex="1" parent="O0VwoSt6DRj06Ita-L_8-1">
          <mxGeometry x="30" y="190" width="280" height="280" as="geometry" />
        </mxCell>
        <mxCell id="O0VwoSt6DRj06Ita-L_8-64" value="召回" style="text;html=1;align=center;verticalAlign=middle;resizable=0;points=[];autosize=1;strokeColor=none;fillColor=none;fontSize=24;" vertex="1" parent="O0VwoSt6DRj06Ita-L_8-63">
          <mxGeometry x="217.5" width="60" height="30" as="geometry" />
        </mxCell>
        <mxCell id="O0VwoSt6DRj06Ita-L_8-94" value="" style="edgeStyle=orthogonalEdgeStyle;rounded=0;orthogonalLoop=1;jettySize=auto;html=1;fontSize=12;" edge="1" parent="O0VwoSt6DRj06Ita-L_8-1" source="O0VwoSt6DRj06Ita-L_8-90" target="O0VwoSt6DRj06Ita-L_8-93">
          <mxGeometry relative="1" as="geometry" />
        </mxCell>
        <mxCell id="O0VwoSt6DRj06Ita-L_8-90" value="" style="swimlane;startSize=0;fontSize=12;html=0;" vertex="1" parent="O0VwoSt6DRj06Ita-L_8-1">
          <mxGeometry x="20" y="600" width="300" height="500" as="geometry">
            <mxRectangle x="20" y="480" width="50" height="40" as="alternateBounds" />
          </mxGeometry>
        </mxCell>
        <mxCell id="O0VwoSt6DRj06Ita-L_8-86" value="自身同屏去重（同一个页面不能投放相同的车型的M物料--处理的是和已写入缓存的车型对比）" style="whiteSpace=wrap;html=1;rounded=0;" vertex="1" parent="O0VwoSt6DRj06Ita-L_8-90">
          <mxGeometry x="52.5" y="230" width="195" height="110" as="geometry" />
        </mxCell>
        <mxCell id="O0VwoSt6DRj06Ita-L_8-88" value="频次控制（同一用户一天同一个物料只能看到10次）" style="whiteSpace=wrap;html=1;rounded=0;" vertex="1" parent="O0VwoSt6DRj06Ita-L_8-90">
          <mxGeometry x="62.5" y="380" width="175" height="70" as="geometry" />
        </mxCell>
        <mxCell id="O0VwoSt6DRj06Ita-L_8-89" value="" style="edgeStyle=orthogonalEdgeStyle;rounded=0;orthogonalLoop=1;jettySize=auto;html=1;fontSize=12;" edge="1" parent="O0VwoSt6DRj06Ita-L_8-90" source="O0VwoSt6DRj06Ita-L_8-86" target="O0VwoSt6DRj06Ita-L_8-88">
          <mxGeometry relative="1" as="geometry" />
        </mxCell>
        <mxCell id="O0VwoSt6DRj06Ita-L_8-82" value="合约同屏去重（合约投放的页面不能投放相同车型的物料）" style="whiteSpace=wrap;html=1;rounded=0;" vertex="1" parent="O0VwoSt6DRj06Ita-L_8-90">
          <mxGeometry x="62.5" y="130" width="175" height="70" as="geometry" />
        </mxCell>
        <mxCell id="O0VwoSt6DRj06Ita-L_8-87" value="" style="edgeStyle=orthogonalEdgeStyle;rounded=0;orthogonalLoop=1;jettySize=auto;html=1;fontSize=12;" edge="1" parent="O0VwoSt6DRj06Ita-L_8-90" source="O0VwoSt6DRj06Ita-L_8-82" target="O0VwoSt6DRj06Ita-L_8-86">
          <mxGeometry relative="1" as="geometry" />
        </mxCell>
        <mxCell id="O0VwoSt6DRj06Ita-L_8-58" value="校验过滤" style="whiteSpace=wrap;html=1;rounded=0;" vertex="1" parent="O0VwoSt6DRj06Ita-L_8-90">
          <mxGeometry x="90" y="40" width="120" height="60" as="geometry" />
        </mxCell>
        <mxCell id="O0VwoSt6DRj06Ita-L_8-83" value="" style="edgeStyle=orthogonalEdgeStyle;rounded=0;orthogonalLoop=1;jettySize=auto;html=1;fontSize=12;" edge="1" parent="O0VwoSt6DRj06Ita-L_8-90" source="O0VwoSt6DRj06Ita-L_8-58" target="O0VwoSt6DRj06Ita-L_8-82">
          <mxGeometry relative="1" as="geometry" />
        </mxCell>
        <mxCell id="O0VwoSt6DRj06Ita-L_8-101" value="" style="edgeStyle=orthogonalEdgeStyle;rounded=0;orthogonalLoop=1;jettySize=auto;html=1;fontSize=12;" edge="1" parent="O0VwoSt6DRj06Ita-L_8-1" source="O0VwoSt6DRj06Ita-L_8-93" target="O0VwoSt6DRj06Ita-L_8-100">
          <mxGeometry relative="1" as="geometry" />
        </mxCell>
        <mxCell id="O0VwoSt6DRj06Ita-L_8-93" value="RANK" style="rounded=0;whiteSpace=wrap;html=1;fontSize=12;" vertex="1" parent="O0VwoSt6DRj06Ita-L_8-1">
          <mxGeometry x="85" y="1170" width="170" height="70" as="geometry" />
        </mxCell>
        <mxCell id="O0VwoSt6DRj06Ita-L_8-100" value="Padding" style="whiteSpace=wrap;html=1;rounded=0;" vertex="1" parent="O0VwoSt6DRj06Ita-L_8-1">
          <mxGeometry x="110" y="1325" width="120" height="60" as="geometry" />
        </mxCell>
        <mxCell id="O0VwoSt6DRj06Ita-L_8-11" value="" style="swimlane;startSize=0;" vertex="1" parent="1">
          <mxGeometry x="580" y="330" width="200" height="290" as="geometry" />
        </mxCell>
        <mxCell id="O0VwoSt6DRj06Ita-L_8-14" value="" style="edgeStyle=orthogonalEdgeStyle;rounded=0;orthogonalLoop=1;jettySize=auto;html=1;" edge="1" parent="O0VwoSt6DRj06Ita-L_8-11" source="O0VwoSt6DRj06Ita-L_8-12" target="O0VwoSt6DRj06Ita-L_8-13">
          <mxGeometry relative="1" as="geometry" />
        </mxCell>
        <mxCell id="O0VwoSt6DRj06Ita-L_8-12" value="记录访问PC请求的用户和页面URL" style="whiteSpace=wrap;html=1;" vertex="1" parent="O0VwoSt6DRj06Ita-L_8-11">
          <mxGeometry x="40" y="40" width="120" height="40" as="geometry" />
        </mxCell>
        <mxCell id="O0VwoSt6DRj06Ita-L_8-16" value="" style="edgeStyle=orthogonalEdgeStyle;rounded=0;orthogonalLoop=1;jettySize=auto;html=1;" edge="1" parent="O0VwoSt6DRj06Ita-L_8-11" source="O0VwoSt6DRj06Ita-L_8-13" target="O0VwoSt6DRj06Ita-L_8-15">
          <mxGeometry relative="1" as="geometry" />
        </mxCell>
        <mxCell id="O0VwoSt6DRj06Ita-L_8-13" value="调用用户画像服务" style="whiteSpace=wrap;html=1;" vertex="1" parent="O0VwoSt6DRj06Ita-L_8-11">
          <mxGeometry x="40" y="120" width="120" height="40" as="geometry" />
        </mxCell>
        <mxCell id="O0VwoSt6DRj06Ita-L_8-15" value="获取兴趣车型" style="whiteSpace=wrap;html=1;" vertex="1" parent="O0VwoSt6DRj06Ita-L_8-11">
          <mxGeometry x="40" y="200" width="120" height="40" as="geometry" />
        </mxCell>
        <mxCell id="O0VwoSt6DRj06Ita-L_8-19" style="edgeStyle=orthogonalEdgeStyle;rounded=0;orthogonalLoop=1;jettySize=auto;html=1;entryX=0.03;entryY=0.448;entryDx=0;entryDy=0;entryPerimeter=0;" edge="1" parent="1" source="O0VwoSt6DRj06Ita-L_8-3" target="O0VwoSt6DRj06Ita-L_8-11">
          <mxGeometry relative="1" as="geometry" />
        </mxCell>
        <mxCell id="O0VwoSt6DRj06Ita-L_8-22" value="" style="swimlane;startSize=0;" vertex="1" parent="1">
          <mxGeometry x="-710" y="140" width="780" height="715" as="geometry" />
        </mxCell>
        <mxCell id="O0VwoSt6DRj06Ita-L_8-26" value="" style="edgeStyle=orthogonalEdgeStyle;rounded=0;orthogonalLoop=1;jettySize=auto;html=1;" edge="1" parent="O0VwoSt6DRj06Ita-L_8-22" target="O0VwoSt6DRj06Ita-L_8-25">
          <mxGeometry relative="1" as="geometry">
            <mxPoint x="271.25" y="80" as="sourcePoint" />
          </mxGeometry>
        </mxCell>
        <mxCell id="O0VwoSt6DRj06Ita-L_8-24" value="获取点位类型" style="rounded=0;whiteSpace=wrap;html=1;" vertex="1" parent="O0VwoSt6DRj06Ita-L_8-22">
          <mxGeometry x="222.5" y="40" width="110" height="40" as="geometry" />
        </mxCell>
        <mxCell id="O0VwoSt6DRj06Ita-L_8-28" value="是" style="edgeStyle=orthogonalEdgeStyle;rounded=0;orthogonalLoop=1;jettySize=auto;html=1;entryX=0.5;entryY=0;entryDx=0;entryDy=0;" edge="1" parent="O0VwoSt6DRj06Ita-L_8-22" source="O0VwoSt6DRj06Ita-L_8-25" target="O0VwoSt6DRj06Ita-L_8-32">
          <mxGeometry relative="1" as="geometry">
            <mxPoint x="271.25" y="270" as="targetPoint" />
          </mxGeometry>
        </mxCell>
        <mxCell id="O0VwoSt6DRj06Ita-L_8-30" value="" style="edgeStyle=orthogonalEdgeStyle;rounded=0;orthogonalLoop=1;jettySize=auto;html=1;entryX=0;entryY=0.5;entryDx=0;entryDy=0;" edge="1" parent="O0VwoSt6DRj06Ita-L_8-22" source="O0VwoSt6DRj06Ita-L_8-25" target="O0VwoSt6DRj06Ita-L_8-37">
          <mxGeometry relative="1" as="geometry">
            <mxPoint x="376.25" y="170" as="targetPoint" />
          </mxGeometry>
        </mxCell>
        <mxCell id="O0VwoSt6DRj06Ita-L_8-31" value="否" style="edgeLabel;html=1;align=center;verticalAlign=middle;resizable=0;points=[];" vertex="1" connectable="0" parent="O0VwoSt6DRj06Ita-L_8-30">
          <mxGeometry x="-0.2185" y="-3" relative="1" as="geometry">
            <mxPoint as="offset" />
          </mxGeometry>
        </mxCell>
        <mxCell id="O0VwoSt6DRj06Ita-L_8-25" value="判断是否传车型" style="rhombus;whiteSpace=wrap;html=1;rounded=0;" vertex="1" parent="O0VwoSt6DRj06Ita-L_8-22">
          <mxGeometry x="210" y="110" width="122.5" height="120" as="geometry" />
        </mxCell>
        <mxCell id="O0VwoSt6DRj06Ita-L_8-36" value="其他" style="edgeStyle=orthogonalEdgeStyle;rounded=0;orthogonalLoop=1;jettySize=auto;html=1;" edge="1" parent="O0VwoSt6DRj06Ita-L_8-22" source="O0VwoSt6DRj06Ita-L_8-32" target="O0VwoSt6DRj06Ita-L_8-35">
          <mxGeometry relative="1" as="geometry" />
        </mxCell>
        <mxCell id="O0VwoSt6DRj06Ita-L_8-32" value="判断点位类型" style="rhombus;whiteSpace=wrap;html=1;" vertex="1" parent="O0VwoSt6DRj06Ita-L_8-22">
          <mxGeometry x="231.25" y="290" width="80" height="80" as="geometry" />
        </mxCell>
        <mxCell id="O0VwoSt6DRj06Ita-L_8-47" style="edgeStyle=orthogonalEdgeStyle;rounded=0;orthogonalLoop=1;jettySize=auto;html=1;exitX=0.5;exitY=1;exitDx=0;exitDy=0;entryX=0;entryY=0.5;entryDx=0;entryDy=0;" edge="1" parent="O0VwoSt6DRj06Ita-L_8-22" source="O0VwoSt6DRj06Ita-L_8-35" target="O0VwoSt6DRj06Ita-L_8-45">
          <mxGeometry relative="1" as="geometry" />
        </mxCell>
        <mxCell id="O0VwoSt6DRj06Ita-L_8-35" value="取端上车型" style="whiteSpace=wrap;html=1;" vertex="1" parent="O0VwoSt6DRj06Ita-L_8-22">
          <mxGeometry x="50" y="300" width="120" height="60" as="geometry" />
        </mxCell>
        <mxCell id="O0VwoSt6DRj06Ita-L_8-48" style="edgeStyle=orthogonalEdgeStyle;rounded=0;orthogonalLoop=1;jettySize=auto;html=1;exitX=0.5;exitY=1;exitDx=0;exitDy=0;entryX=0.5;entryY=0;entryDx=0;entryDy=0;" edge="1" parent="O0VwoSt6DRj06Ita-L_8-22" source="O0VwoSt6DRj06Ita-L_8-33" target="O0VwoSt6DRj06Ita-L_8-45">
          <mxGeometry relative="1" as="geometry" />
        </mxCell>
        <mxCell id="O0VwoSt6DRj06Ita-L_8-33" value="根据车型获取竞品车型" style="whiteSpace=wrap;html=1;" vertex="1" parent="O0VwoSt6DRj06Ita-L_8-22">
          <mxGeometry x="210" y="430" width="120" height="60" as="geometry" />
        </mxCell>
        <mxCell id="O0VwoSt6DRj06Ita-L_8-34" value="竞品点位" style="edgeStyle=orthogonalEdgeStyle;rounded=0;orthogonalLoop=1;jettySize=auto;html=1;" edge="1" parent="O0VwoSt6DRj06Ita-L_8-22" source="O0VwoSt6DRj06Ita-L_8-32" target="O0VwoSt6DRj06Ita-L_8-33">
          <mxGeometry relative="1" as="geometry" />
        </mxCell>
        <mxCell id="O0VwoSt6DRj06Ita-L_8-43" value="" style="edgeStyle=orthogonalEdgeStyle;rounded=0;orthogonalLoop=1;jettySize=auto;html=1;" edge="1" parent="O0VwoSt6DRj06Ita-L_8-22" source="O0VwoSt6DRj06Ita-L_8-37" target="O0VwoSt6DRj06Ita-L_8-42">
          <mxGeometry relative="1" as="geometry" />
        </mxCell>
        <mxCell id="O0VwoSt6DRj06Ita-L_8-44" value="否" style="edgeLabel;html=1;align=center;verticalAlign=middle;resizable=0;points=[];" vertex="1" connectable="0" parent="O0VwoSt6DRj06Ita-L_8-43">
          <mxGeometry x="-0.0286" y="-2" relative="1" as="geometry">
            <mxPoint as="offset" />
          </mxGeometry>
        </mxCell>
        <mxCell id="O0VwoSt6DRj06Ita-L_8-37" value="判断是否有兴趣车型" style="rhombus;whiteSpace=wrap;html=1;" vertex="1" parent="O0VwoSt6DRj06Ita-L_8-22">
          <mxGeometry x="400" y="115" width="100" height="110" as="geometry" />
        </mxCell>
        <mxCell id="O0VwoSt6DRj06Ita-L_8-50" style="edgeStyle=orthogonalEdgeStyle;rounded=0;orthogonalLoop=1;jettySize=auto;html=1;" edge="1" parent="O0VwoSt6DRj06Ita-L_8-22" source="O0VwoSt6DRj06Ita-L_8-42">
          <mxGeometry relative="1" as="geometry">
            <mxPoint x="430" y="555" as="targetPoint" />
            <Array as="points">
              <mxPoint x="590" y="555" />
            </Array>
          </mxGeometry>
        </mxCell>
        <mxCell id="O0VwoSt6DRj06Ita-L_8-42" value="不取车型" style="whiteSpace=wrap;html=1;" vertex="1" parent="O0VwoSt6DRj06Ita-L_8-22">
          <mxGeometry x="530" y="290" width="120" height="60" as="geometry" />
        </mxCell>
        <mxCell id="O0VwoSt6DRj06Ita-L_8-49" value="若查询不到数据，&lt;br&gt;则进行去掉兴趣车型在查" style="edgeStyle=orthogonalEdgeStyle;rounded=0;orthogonalLoop=1;jettySize=auto;html=1;entryX=1;entryY=0.5;entryDx=0;entryDy=0;" edge="1" parent="O0VwoSt6DRj06Ita-L_8-22" source="O0VwoSt6DRj06Ita-L_8-39" target="O0VwoSt6DRj06Ita-L_8-45">
          <mxGeometry relative="1" as="geometry" />
        </mxCell>
        <mxCell id="O0VwoSt6DRj06Ita-L_8-39" value="取兴趣车型" style="whiteSpace=wrap;html=1;" vertex="1" parent="O0VwoSt6DRj06Ita-L_8-22">
          <mxGeometry x="390" y="290" width="120" height="60" as="geometry" />
        </mxCell>
        <mxCell id="O0VwoSt6DRj06Ita-L_8-40" value="" style="edgeStyle=orthogonalEdgeStyle;rounded=0;orthogonalLoop=1;jettySize=auto;html=1;" edge="1" parent="O0VwoSt6DRj06Ita-L_8-22" source="O0VwoSt6DRj06Ita-L_8-37" target="O0VwoSt6DRj06Ita-L_8-39">
          <mxGeometry relative="1" as="geometry" />
        </mxCell>
        <mxCell id="O0VwoSt6DRj06Ita-L_8-41" value="是" style="edgeLabel;html=1;align=center;verticalAlign=middle;resizable=0;points=[];" vertex="1" connectable="0" parent="O0VwoSt6DRj06Ita-L_8-40">
          <mxGeometry x="-0.2" y="1" relative="1" as="geometry">
            <mxPoint as="offset" />
          </mxGeometry>
        </mxCell>
        <mxCell id="O0VwoSt6DRj06Ita-L_8-57" value="" style="edgeStyle=orthogonalEdgeStyle;rounded=0;orthogonalLoop=1;jettySize=auto;html=1;" edge="1" parent="O0VwoSt6DRj06Ita-L_8-22" source="O0VwoSt6DRj06Ita-L_8-45" target="O0VwoSt6DRj06Ita-L_8-56">
          <mxGeometry relative="1" as="geometry" />
        </mxCell>
        <mxCell id="O0VwoSt6DRj06Ita-L_8-45" value="查询ES索引（车型+点位+排期）" style="rounded=0;whiteSpace=wrap;html=1;" vertex="1" parent="O0VwoSt6DRj06Ita-L_8-22">
          <mxGeometry x="231.25" y="530" width="195" height="50" as="geometry" />
        </mxCell>
        <mxCell id="O0VwoSt6DRj06Ita-L_8-56" value="得到订单集合" style="whiteSpace=wrap;html=1;rounded=0;" vertex="1" parent="O0VwoSt6DRj06Ita-L_8-22">
          <mxGeometry x="268.75" y="630" width="120" height="60" as="geometry" />
        </mxCell>
        <mxCell id="O0VwoSt6DRj06Ita-L_8-51" style="edgeStyle=orthogonalEdgeStyle;rounded=0;orthogonalLoop=1;jettySize=auto;html=1;entryX=1.001;entryY=0.567;entryDx=0;entryDy=0;entryPerimeter=0;" edge="1" parent="1" source="O0VwoSt6DRj06Ita-L_8-20" target="O0VwoSt6DRj06Ita-L_8-22">
          <mxGeometry relative="1" as="geometry" />
        </mxCell>
        <mxCell id="O0VwoSt6DRj06Ita-L_8-65" value="" style="swimlane;startSize=0;fontSize=24;html=0;" vertex="1" parent="1">
          <mxGeometry x="540" y="670" width="460" height="540" as="geometry" />
        </mxCell>
        <mxCell id="O0VwoSt6DRj06Ita-L_8-68" value="" style="edgeStyle=orthogonalEdgeStyle;rounded=0;orthogonalLoop=1;jettySize=auto;html=1;fontSize=12;" edge="1" parent="O0VwoSt6DRj06Ita-L_8-65" source="O0VwoSt6DRj06Ita-L_8-66" target="O0VwoSt6DRj06Ita-L_8-67">
          <mxGeometry relative="1" as="geometry" />
        </mxCell>
        <mxCell id="O0VwoSt6DRj06Ita-L_8-66" value="点位过滤" style="whiteSpace=wrap;html=1;fontSize=12;" vertex="1" parent="O0VwoSt6DRj06Ita-L_8-65">
          <mxGeometry x="70" y="100" width="120" height="40" as="geometry" />
        </mxCell>
        <mxCell id="O0VwoSt6DRj06Ita-L_8-70" value="" style="edgeStyle=orthogonalEdgeStyle;rounded=0;orthogonalLoop=1;jettySize=auto;html=1;fontSize=12;" edge="1" parent="O0VwoSt6DRj06Ita-L_8-65" source="O0VwoSt6DRj06Ita-L_8-67" target="O0VwoSt6DRj06Ita-L_8-69">
          <mxGeometry relative="1" as="geometry" />
        </mxCell>
        <mxCell id="O0VwoSt6DRj06Ita-L_8-67" value="投放平台过滤" style="whiteSpace=wrap;html=1;" vertex="1" parent="O0VwoSt6DRj06Ita-L_8-65">
          <mxGeometry x="70" y="170" width="120" height="40" as="geometry" />
        </mxCell>
        <mxCell id="O0VwoSt6DRj06Ita-L_8-75" value="" style="edgeStyle=orthogonalEdgeStyle;rounded=0;orthogonalLoop=1;jettySize=auto;html=1;fontSize=12;" edge="1" parent="O0VwoSt6DRj06Ita-L_8-65" source="O0VwoSt6DRj06Ita-L_8-69" target="O0VwoSt6DRj06Ita-L_8-74">
          <mxGeometry relative="1" as="geometry" />
        </mxCell>
        <mxCell id="O0VwoSt6DRj06Ita-L_8-69" value="尺寸过滤" style="whiteSpace=wrap;html=1;" vertex="1" parent="O0VwoSt6DRj06Ita-L_8-65">
          <mxGeometry x="70" y="240" width="120" height="40" as="geometry" />
        </mxCell>
        <mxCell id="O0VwoSt6DRj06Ita-L_8-72" value="" style="edgeStyle=orthogonalEdgeStyle;rounded=0;orthogonalLoop=1;jettySize=auto;html=1;fontSize=12;" edge="1" parent="O0VwoSt6DRj06Ita-L_8-65" source="O0VwoSt6DRj06Ita-L_8-71" target="O0VwoSt6DRj06Ita-L_8-66">
          <mxGeometry relative="1" as="geometry" />
        </mxCell>
        <mxCell id="O0VwoSt6DRj06Ita-L_8-71" value="排期过滤" style="whiteSpace=wrap;html=1;fontSize=12;" vertex="1" parent="O0VwoSt6DRj06Ita-L_8-65">
          <mxGeometry x="70" y="21" width="120" height="40" as="geometry" />
        </mxCell>
        <mxCell id="O0VwoSt6DRj06Ita-L_8-77" value="竞品点位" style="edgeStyle=orthogonalEdgeStyle;rounded=0;orthogonalLoop=1;jettySize=auto;html=1;fontSize=12;" edge="1" parent="O0VwoSt6DRj06Ita-L_8-65" source="O0VwoSt6DRj06Ita-L_8-74" target="O0VwoSt6DRj06Ita-L_8-76">
          <mxGeometry relative="1" as="geometry" />
        </mxCell>
        <mxCell id="O0VwoSt6DRj06Ita-L_8-79" value="" style="edgeStyle=orthogonalEdgeStyle;rounded=0;orthogonalLoop=1;jettySize=auto;html=1;fontSize=12;" edge="1" parent="O0VwoSt6DRj06Ita-L_8-65" source="O0VwoSt6DRj06Ita-L_8-74" target="O0VwoSt6DRj06Ita-L_8-78">
          <mxGeometry relative="1" as="geometry" />
        </mxCell>
        <mxCell id="O0VwoSt6DRj06Ita-L_8-80" value="品牌专区" style="edgeLabel;html=1;align=center;verticalAlign=middle;resizable=0;points=[];fontSize=12;" vertex="1" connectable="0" parent="O0VwoSt6DRj06Ita-L_8-79">
          <mxGeometry x="-0.1556" y="4" relative="1" as="geometry">
            <mxPoint as="offset" />
          </mxGeometry>
        </mxCell>
        <mxCell id="O0VwoSt6DRj06Ita-L_8-74" value="点位类型过滤" style="rhombus;whiteSpace=wrap;html=1;" vertex="1" parent="O0VwoSt6DRj06Ita-L_8-65">
          <mxGeometry x="90" y="310" width="80" height="80" as="geometry" />
        </mxCell>
        <mxCell id="O0VwoSt6DRj06Ita-L_8-76" value="不能投放自身车型，只能投放竞品车型" style="whiteSpace=wrap;html=1;" vertex="1" parent="O0VwoSt6DRj06Ita-L_8-65">
          <mxGeometry x="70" y="420" width="120" height="60" as="geometry" />
        </mxCell>
        <mxCell id="O0VwoSt6DRj06Ita-L_8-78" value="只能投自身点位" style="whiteSpace=wrap;html=1;" vertex="1" parent="O0VwoSt6DRj06Ita-L_8-65">
          <mxGeometry x="270" y="320" width="120" height="60" as="geometry" />
        </mxCell>
        <mxCell id="O0VwoSt6DRj06Ita-L_8-81" style="edgeStyle=orthogonalEdgeStyle;rounded=0;orthogonalLoop=1;jettySize=auto;html=1;entryX=-0.014;entryY=0.572;entryDx=0;entryDy=0;entryPerimeter=0;fontSize=12;" edge="1" parent="1" source="O0VwoSt6DRj06Ita-L_8-58" target="O0VwoSt6DRj06Ita-L_8-65">
          <mxGeometry relative="1" as="geometry" />
        </mxCell>
        <mxCell id="O0VwoSt6DRj06Ita-L_8-92" value="过滤" style="text;html=1;align=center;verticalAlign=middle;resizable=0;points=[];autosize=1;strokeColor=none;fillColor=none;fontSize=24;" vertex="1" parent="1">
          <mxGeometry x="390" y="915" width="60" height="30" as="geometry" />
        </mxCell>
        <mxCell id="O0VwoSt6DRj06Ita-L_8-97" style="edgeStyle=orthogonalEdgeStyle;rounded=0;orthogonalLoop=1;jettySize=auto;html=1;fontSize=12;entryX=0;entryY=0.5;entryDx=0;entryDy=0;" edge="1" parent="1" source="O0VwoSt6DRj06Ita-L_8-93" target="O0VwoSt6DRj06Ita-L_8-99">
          <mxGeometry relative="1" as="geometry">
            <mxPoint x="660" y="1515" as="targetPoint" />
          </mxGeometry>
        </mxCell>
        <mxCell id="O0VwoSt6DRj06Ita-L_8-99" value="&lt;span&gt;处理了多个点位相同物料和多个点位有相同车型的情况&lt;/span&gt;" style="shape=document;whiteSpace=wrap;html=1;boundedLbl=1;fontSize=12;" vertex="1" parent="1">
          <mxGeometry x="540" y="1475" width="120" height="80" as="geometry" />
        </mxCell>
        <mxCell id="O0VwoSt6DRj06Ita-L_8-102" value="" style="swimlane;startSize=0;fontSize=12;html=0;" vertex="1" parent="1">
          <mxGeometry x="570" y="1610" width="230" height="310" as="geometry" />
        </mxCell>
        <mxCell id="O0VwoSt6DRj06Ita-L_8-105" value="" style="edgeStyle=orthogonalEdgeStyle;rounded=0;orthogonalLoop=1;jettySize=auto;html=1;fontSize=12;" edge="1" parent="O0VwoSt6DRj06Ita-L_8-102" source="O0VwoSt6DRj06Ita-L_8-103" target="O0VwoSt6DRj06Ita-L_8-104">
          <mxGeometry relative="1" as="geometry" />
        </mxCell>
        <mxCell id="O0VwoSt6DRj06Ita-L_8-103" value="拼接各种参数" style="whiteSpace=wrap;html=1;fontSize=12;" vertex="1" parent="O0VwoSt6DRj06Ita-L_8-102">
          <mxGeometry x="55" y="20" width="120" height="60" as="geometry" />
        </mxCell>
        <mxCell id="O0VwoSt6DRj06Ita-L_8-107" value="" style="edgeStyle=orthogonalEdgeStyle;rounded=0;orthogonalLoop=1;jettySize=auto;html=1;fontSize=12;" edge="1" parent="O0VwoSt6DRj06Ita-L_8-102" source="O0VwoSt6DRj06Ita-L_8-104" target="O0VwoSt6DRj06Ita-L_8-106">
          <mxGeometry relative="1" as="geometry" />
        </mxCell>
        <mxCell id="O0VwoSt6DRj06Ita-L_8-104" value="物料频次+1" style="whiteSpace=wrap;html=1;" vertex="1" parent="O0VwoSt6DRj06Ita-L_8-102">
          <mxGeometry x="55" y="120" width="120" height="60" as="geometry" />
        </mxCell>
        <mxCell id="O0VwoSt6DRj06Ita-L_8-106" value="自身同屏去重缓存写入" style="whiteSpace=wrap;html=1;" vertex="1" parent="O0VwoSt6DRj06Ita-L_8-102">
          <mxGeometry x="55" y="220" width="120" height="60" as="geometry" />
        </mxCell>
        <mxCell id="O0VwoSt6DRj06Ita-L_8-108" style="edgeStyle=orthogonalEdgeStyle;rounded=0;orthogonalLoop=1;jettySize=auto;html=1;entryX=-0.009;entryY=0.175;entryDx=0;entryDy=0;entryPerimeter=0;fontSize=12;" edge="1" parent="1" source="O0VwoSt6DRj06Ita-L_8-100" target="O0VwoSt6DRj06Ita-L_8-102">
          <mxGeometry relative="1" as="geometry" />
        </mxCell>
      </root>
    </mxGraphModel>
  </diagram>
</mxfile>
